<svg width="881" height="101" viewBox="0 0 881 101" fill="none" xmlns="http://www.w3.org/2000/svg">
<path d="M880.529 16.0753V85.8653C880.529 94.2053 873.769 100.965 865.429 100.965H502.509C490.829 100.965 479.999 95.4253 472.659 86.3353C465.099 76.9653 453.509 70.9653 440.529 70.9653C427.539 70.9653 415.949 76.9653 408.379 86.3353C401.039 95.4153 390.209 100.965 378.529 100.965H15.6293C7.2893 100.965 0.529297 94.2053 0.529297 85.8653V16.0653C0.529297 7.72533 7.2893 0.965332 15.6293 0.965332H378.539C390.219 0.965332 401.049 6.50533 408.389 15.5953C415.949 24.9653 427.539 30.9653 440.529 30.9653C453.509 30.9653 465.099 24.9653 472.659 15.5953C479.999 6.50533 490.839 0.965332 502.509 0.965332H865.419C873.759 0.965332 880.529 7.72533 880.529 16.0753Z" fill="white"/>
</svg>