<svg width="22" height="21" viewBox="0 0 22 21" fill="none" xmlns="http://www.w3.org/2000/svg">
<path opacity="0.5" d="M9.9375 0.0703125C14.9055 0.0703125 18.9375 4.10231 18.9375 9.07031C18.9375 14.0383 14.9055 18.0703 9.9375 18.0703C4.9695 18.0703 0.9375 14.0383 0.9375 9.07031C0.9375 4.10231 4.9695 0.0703125 9.9375 0.0703125ZM9.9375 16.0703C13.8045 16.0703 16.9375 12.9373 16.9375 9.07031C16.9375 5.20231 13.8045 2.07031 9.9375 2.07031C6.0695 2.07031 2.9375 5.20231 2.9375 9.07031C2.9375 12.9373 6.0695 16.0703 9.9375 16.0703ZM18.4225 16.1413L21.2515 18.9693L19.8365 20.3843L17.0085 17.5553L18.4225 16.1413Z" fill="#003D41"/>
</svg>
