<svg width="18" height="17" viewBox="0 0 18 17" fill="none" xmlns="http://www.w3.org/2000/svg">
<path d="M11.6127 16.1607L11.7224 16.051C11.8162 15.868 11.8692 15.6688 11.9364 15.4752C13.5079 10.7602 15.0796 6.04503 16.6509 1.32987C16.714 1.16242 16.6814 0.979208 16.5991 0.824861L16.4714 0.697126C16.317 0.611149 16.1316 0.579215 15.9625 0.641855C11.1724 2.23814 6.38251 3.83545 1.59242 5.43174C1.47492 5.46818 1.35947 5.51116 1.24811 5.56357L1.11935 5.69233C1.00308 5.88762 1.01209 6.13326 1.13552 6.32302L1.24565 6.43315C1.31832 6.46447 1.39018 6.49825 1.46633 6.51995C3.96945 7.12137 6.47709 7.70724 8.97878 8.31378C9.58696 10.8224 10.1745 13.337 10.7775 15.8475C10.7945 15.9091 10.8197 15.9683 10.841 16.0285L10.9671 16.1546C11.1611 16.2864 11.4158 16.2852 11.6127 16.1607ZM11.3791 13.7888C10.8899 11.7819 10.4226 9.76902 9.93844 7.76066C9.8934 7.56087 9.73087 7.39916 9.53128 7.35433C7.52313 6.8704 5.51027 6.40265 3.50375 5.91341C7.42978 4.59573 11.3617 3.2938 15.2892 1.98042C15.2949 1.98615 15.3062 1.99782 15.3119 2.00355C13.9988 5.93122 12.6968 9.86278 11.3791 13.7888Z" fill="#809EA0" stroke="#809EA0" stroke-width="0.7"/>
</svg>
