<svg width="13" height="17" viewBox="0 0 13 17" fill="none" xmlns="http://www.w3.org/2000/svg">
<path fill-rule="evenodd" clip-rule="evenodd" d="M6.18053 16.5371V13.2323H6.84465V16.5371H6.18053Z" fill="#FF0000"/>
<path fill-rule="evenodd" clip-rule="evenodd" d="M7.7787 12.4531C10.6128 11.8681 12.7434 9.35838 12.7434 6.351C12.7434 2.90981 9.95379 0.120168 6.51259 0.120168C3.07139 0.120168 0.281754 2.90981 0.281754 6.351C0.281754 9.35838 2.41237 11.8681 5.24648 12.4531L6.51259 13.7192L7.7787 12.4531ZM6.51262 7.76725C7.29486 7.76725 7.929 7.13312 7.929 6.35087C7.929 5.56863 7.29486 4.9345 6.51262 4.9345C5.73038 4.9345 5.09624 5.56863 5.09624 6.35087C5.09624 7.13312 5.73038 7.76725 6.51262 7.76725Z" fill="#FF0000"/>
<path fill-rule="evenodd" clip-rule="evenodd" d="M1.26082 0.0777893C0.710646 0.0777893 0.264648 0.523787 0.264648 1.07396L0.264648 11.5576C0.264648 12.1077 0.710646 12.5537 1.26082 12.5537L11.7444 12.5537C12.2946 12.5537 12.7406 12.1077 12.7406 11.5576L12.7406 1.07396C12.7406 0.523787 12.2946 0.0777893 11.7444 0.0777893L1.26082 0.0777893ZM7.64406 7.45712H5.36126V5.17432H7.64406V7.45712Z" fill="#FF0000"/>
</svg>
