<svg width="13" height="18" viewBox="0 0 13 18" fill="none" xmlns="http://www.w3.org/2000/svg">
<path fill-rule="evenodd" clip-rule="evenodd" d="M6.16159 17.7896V14.3756H6.84765V17.7896H6.16159Z" fill="#00D47B"/>
<path fill-rule="evenodd" clip-rule="evenodd" d="M7.81257 13.5706C10.7403 12.9663 12.9414 10.3736 12.9414 7.26683C12.9414 3.71191 10.0595 0.830078 6.50462 0.830078C2.9497 0.830078 0.0678711 3.71191 0.0678711 7.26683C0.0678711 10.3736 2.2689 12.9663 5.19667 13.5706L6.50462 14.8785L7.81257 13.5706ZM6.50465 8.72987C7.31274 8.72987 7.96783 8.07478 7.96783 7.26669C7.96783 6.4586 7.31274 5.80351 6.50465 5.80351C5.69656 5.80351 5.04147 6.4586 5.04147 7.26669C5.04147 8.07478 5.69656 8.72987 6.50465 8.72987Z" fill="#00D47B"/>
</svg>
